<svg width="168" height="50" viewBox="0 0 168 50" fill="none" xmlns="http://www.w3.org/2000/svg">
<path d="M166.732 43.5398C166.732 46.121 164.598 48.2119 161.958 48.2119H5.71232C3.07354 48.2119 0.931641 46.121 0.931641 43.5398V6.28167C0.931641 3.70167 3.07354 1.60352 5.71232 1.60352H161.957C164.598 1.60352 166.731 3.70167 166.731 6.28167L166.732 43.5398Z" fill="black"/>
<path d="M161.454 1.66106C164.329 1.66106 166.668 3.9421 166.668 6.74534V43.0724C166.668 45.8757 164.329 48.1567 161.454 48.1567H6.20976C3.33464 48.1567 0.995114 45.8757 0.995114 43.0724V6.74534C0.995114 3.9421 3.33464 1.66106 6.20976 1.66106H161.454ZM161.454 0.690825H6.20976C2.79594 0.690825 0 3.41687 0 6.74534V43.0724C0 46.4009 2.79594 49.127 6.20976 49.127H161.454C164.868 49.127 167.664 46.4009 167.664 43.0724V6.74534C167.664 3.41687 164.868 0.690825 161.454 0.690825Z" fill="#A6A6A6"/>
<path d="M37.4202 24.648C37.3842 20.7453 40.6978 18.8466 40.8493 18.7582C38.9727 16.0906 36.064 15.7261 35.0419 15.6971C32.599 15.4464 30.2293 17.1223 28.9849 17.1223C27.7156 17.1223 25.7993 15.7213 23.7339 15.7624C21.0762 15.8024 18.5898 17.3027 17.2261 19.6325C14.4118 24.3829 16.5107 31.3637 19.207 35.2035C20.5558 37.084 22.1318 39.1837 24.1947 39.1099C26.2129 39.0287 26.9667 37.8554 29.4022 37.8554C31.8153 37.8554 32.5232 39.1099 34.6271 39.0626C36.7931 39.0287 38.1567 37.1736 39.4583 35.2761C41.0169 33.1207 41.6429 30.998 41.6677 30.889C41.6168 30.8721 37.4612 29.3258 37.4202 24.648Z" fill="white"/>
<path d="M33.446 13.1711C34.5315 11.8476 35.2742 10.047 35.068 8.21973C33.4969 8.28754 31.5322 9.27927 30.4007 10.5737C29.3997 11.7144 28.5055 13.584 28.7365 15.3423C30.5013 15.4706 32.3133 14.474 33.446 13.1711Z" fill="white"/>
<path d="M66.6242 38.8413H63.8038L62.2588 34.1078H56.8886L55.4169 38.8413H52.6709L57.9914 22.7266H61.2776L66.6242 38.8413ZM61.793 32.122L60.3958 27.9141C60.248 27.4842 59.9711 26.4719 59.5625 24.8783H59.5128C59.3501 25.5637 59.0881 26.576 58.7279 27.9141L57.3555 32.122H61.793Z" fill="white"/>
<path d="M80.307 32.889C80.307 34.8652 79.7593 36.4272 78.6639 37.574C77.6827 38.5947 76.4644 39.1045 75.01 39.1045C73.4402 39.1045 72.3125 38.5548 71.6257 37.4553H71.576V43.5764H68.9282V31.0472C68.9282 29.8048 68.8947 28.5297 68.8301 27.2219H71.1587L71.3065 29.0637H71.3562C72.2392 27.676 73.5793 26.9834 75.3776 26.9834C76.7835 26.9834 77.9572 27.5247 78.8961 28.6084C79.8375 29.6934 80.307 31.1198 80.307 32.889ZM77.6094 32.9834C77.6094 31.8524 77.3486 30.92 76.8245 30.1862C76.252 29.4209 75.4832 29.0383 74.5195 29.0383C73.8662 29.0383 73.2725 29.2514 72.7422 29.6716C72.2107 30.0954 71.8629 30.6488 71.7002 31.3342C71.6183 31.6539 71.5773 31.9154 71.5773 32.1213V34.0587C71.5773 34.9039 71.8431 35.6171 72.3746 36.1996C72.9062 36.782 73.5967 37.0726 74.4462 37.0726C75.4435 37.0726 76.2197 36.6973 76.7748 35.9489C77.3312 35.1994 77.6094 34.2113 77.6094 32.9834Z" fill="white"/>
<path d="M94.0137 32.889C94.0137 34.8652 93.466 36.4272 92.3694 37.574C91.3895 38.5947 90.1711 39.1045 88.7168 39.1045C87.147 39.1045 86.0193 38.5548 85.3337 37.4553H85.284V43.5764H82.6362V31.0472C82.6362 29.8048 82.6027 28.5297 82.5381 27.2219H84.8667L85.0145 29.0637H85.0642C85.946 27.676 87.2861 26.9834 89.0857 26.9834C90.4903 26.9834 91.664 27.5247 92.6054 28.6084C93.543 29.6934 94.0137 31.1198 94.0137 32.889ZM91.3162 32.9834C91.3162 31.8524 91.0541 30.92 90.53 30.1862C89.9575 29.4209 89.1912 29.0383 88.2262 29.0383C87.5717 29.0383 86.9793 29.2514 86.4478 29.6716C85.9162 30.0954 85.5697 30.6488 85.407 31.3342C85.3263 31.6539 85.284 31.9154 85.284 32.1213V34.0587C85.284 34.9039 85.5498 35.6171 86.0789 36.1996C86.6104 36.7808 87.301 37.0726 88.153 37.0726C89.1502 37.0726 89.9265 36.6973 90.4816 35.9489C91.038 35.1994 91.3162 34.2113 91.3162 32.9834Z" fill="white"/>
<path d="M109.339 34.322C109.339 35.6927 108.851 36.808 107.872 37.6689C106.795 38.6098 105.296 39.0796 103.369 39.0796C101.591 39.0796 100.165 38.7454 99.0859 38.0758L99.6995 35.924C100.862 36.6094 102.137 36.9533 103.527 36.9533C104.524 36.9533 105.301 36.7329 105.858 36.2945C106.413 35.8562 106.69 35.2677 106.69 34.5339C106.69 33.88 106.462 33.329 106.004 32.8822C105.548 32.4354 104.786 32.02 103.723 31.6362C100.83 30.5839 99.384 29.0424 99.384 27.0154C99.384 25.6907 99.8907 24.6045 100.905 23.7593C101.916 22.9128 103.265 22.4902 104.952 22.4902C106.456 22.4902 107.705 22.7457 108.702 23.2555L108.04 25.3601C107.109 24.866 106.056 24.619 104.877 24.619C103.946 24.619 103.218 24.843 102.696 25.2886C102.255 25.687 102.034 26.1726 102.034 26.7478C102.034 27.3847 102.286 27.9114 102.793 28.3256C103.234 28.7082 104.035 29.1224 105.198 29.5692C106.62 30.1274 107.664 30.7801 108.336 31.5284C109.005 32.2743 109.339 33.2079 109.339 34.322Z" fill="white"/>
<path d="M118.095 29.1608H115.176V34.8024C115.176 36.2374 115.69 36.9542 116.721 36.9542C117.194 36.9542 117.587 36.9143 117.897 36.8343L117.971 38.7948C117.449 38.9849 116.762 39.0806 115.912 39.0806C114.866 39.0806 114.049 38.7694 113.459 38.1482C112.871 37.5258 112.576 36.482 112.576 35.0156V29.1584H110.837V27.221H112.576V25.0934L115.176 24.3281V27.221H118.095V29.1608Z" fill="white"/>
<path d="M131.262 32.935C131.262 34.7211 130.738 36.1875 129.692 37.3342C128.596 38.5148 127.14 39.1033 125.325 39.1033C123.577 39.1033 122.185 38.5378 121.146 37.4069C120.108 36.2759 119.589 34.8482 119.589 33.1275C119.589 31.3269 120.123 29.852 121.195 28.7053C122.264 27.5574 123.707 26.9834 125.522 26.9834C127.27 26.9834 128.677 27.5489 129.739 28.6811C130.755 29.7794 131.262 31.1973 131.262 32.935ZM128.515 33.0185C128.515 31.9469 128.28 31.0278 127.804 30.2613C127.249 29.3338 126.456 28.8712 125.427 28.8712C124.363 28.8712 123.554 29.335 122.999 30.2613C122.524 31.029 122.289 31.9626 122.289 33.067C122.289 34.1386 122.524 35.0577 122.999 35.823C123.572 36.7505 124.372 37.2131 125.404 37.2131C126.415 37.2131 127.208 36.7409 127.781 35.7988C128.269 35.0177 128.515 34.089 128.515 33.0185Z" fill="white"/>
<path d="M139.869 29.4924C139.607 29.4452 139.328 29.4209 139.035 29.4209C138.103 29.4209 137.383 29.7636 136.876 30.4502C136.435 31.0557 136.214 31.821 136.214 32.7449V38.8418H133.568L133.593 30.8813C133.593 29.542 133.559 28.3227 133.493 27.2232H135.799L135.896 29.4464H135.97C136.249 28.6823 136.69 28.0672 137.294 27.6058C137.883 27.1905 138.521 26.9834 139.207 26.9834C139.452 26.9834 139.673 27.0004 139.869 27.0306V29.4924Z" fill="white"/>
<path d="M151.711 32.4824C151.711 32.945 151.68 33.3349 151.615 33.6534H143.671C143.702 34.8013 144.086 35.6792 144.824 36.2847C145.493 36.8259 146.359 37.0972 147.422 37.0972C148.598 37.0972 149.671 36.9143 150.636 36.5474L151.051 38.3396C149.923 38.8191 148.592 39.0576 147.055 39.0576C145.207 39.0576 143.757 38.5272 142.701 37.4677C141.648 36.4082 141.12 34.9854 141.12 33.2005C141.12 31.4483 141.611 29.9892 142.593 28.8255C143.621 27.5831 145.011 26.9619 146.76 26.9619C148.477 26.9619 149.778 27.5831 150.661 28.8255C151.36 29.8124 151.711 31.033 151.711 32.4824ZM149.187 31.8128C149.204 31.0475 149.031 30.3863 148.672 29.8281C148.214 29.1101 147.51 28.7516 146.562 28.7516C145.697 28.7516 144.993 29.1016 144.455 29.8039C144.014 30.3621 143.752 31.0318 143.671 31.8116H149.187V31.8128Z" fill="white"/>
<path d="M60.9155 12.8154C60.9155 14.2407 60.4771 15.3135 59.6015 16.034C58.7905 16.6988 57.638 17.0318 56.1451 17.0318C55.4049 17.0318 54.7715 17.0003 54.2412 16.9374V9.15003C54.933 9.04105 55.6782 8.98535 56.4829 8.98535C57.905 8.98535 58.9768 9.28687 59.6996 9.8899C60.5093 10.5716 60.9155 11.5464 60.9155 12.8154ZM59.5431 12.8506C59.5431 11.9266 59.2922 11.2183 58.7905 10.7242C58.2887 10.2314 57.556 9.98435 56.591 9.98435C56.1811 9.98435 55.8322 10.011 55.5428 10.0667V15.9868C55.703 16.011 55.9961 16.0219 56.4221 16.0219C57.4181 16.0219 58.1869 15.7519 58.7284 15.2118C59.2699 14.6718 59.5431 13.8847 59.5431 12.8506Z" fill="white"/>
<path d="M68.1931 14.0589C68.1931 14.9368 67.936 15.656 67.4218 16.2203C66.8828 16.8003 66.1687 17.0898 65.277 17.0898C64.4175 17.0898 63.7332 16.8125 63.2228 16.2554C62.7136 15.6996 62.459 14.9985 62.459 14.1533C62.459 13.2694 62.721 12.544 63.2476 11.981C63.7742 11.4179 64.4821 11.1357 65.3738 11.1357C66.2333 11.1357 66.9238 11.413 67.4467 11.9688C67.9434 12.5089 68.1931 13.2064 68.1931 14.0589ZM66.8431 14.1C66.8431 13.5733 66.7263 13.1216 66.4941 12.745C66.2209 12.2897 65.8321 12.0621 65.3267 12.0621C64.8038 12.0621 64.4064 12.2897 64.1331 12.745C63.8996 13.1216 63.7841 13.5806 63.7841 14.123C63.7841 14.6498 63.9009 15.1014 64.1331 15.478C64.4151 15.9333 64.8075 16.161 65.3142 16.161C65.811 16.161 66.201 15.9297 66.4817 15.4659C66.7226 15.0821 66.8431 14.6268 66.8431 14.1Z" fill="white"/>
<path d="M77.9493 11.2529L76.1174 16.9611H74.9252L74.1663 14.4824C73.9738 13.8636 73.8174 13.2485 73.6956 12.6382H73.672C73.559 13.2655 73.4025 13.8794 73.2013 14.4824L72.3953 16.9611H71.1894L69.4668 11.2529H70.8044L71.4663 13.9666C71.6265 14.6083 71.7582 15.2198 71.8638 15.7987H71.8874C71.9842 15.3216 72.1444 14.7137 72.3705 13.9787L73.2013 11.2541H74.262L75.0581 13.9205C75.2506 14.5708 75.407 15.1968 75.5275 15.7999H75.5635C75.6517 15.2126 75.7846 14.5865 75.961 13.9205L76.6714 11.2541H77.9493V11.2529Z" fill="white"/>
<path d="M84.6972 16.9609H83.3956V13.6915C83.3956 12.684 83.0031 12.1802 82.2157 12.1802C81.8295 12.1802 81.5178 12.3183 81.2756 12.5956C81.0359 12.8729 80.9142 13.1998 80.9142 13.574V16.9597H79.6126V12.8838C79.6126 12.3825 79.5965 11.8388 79.5654 11.2503H80.7093L80.7701 12.1427H80.8061C80.9577 11.8654 81.1837 11.6365 81.4805 11.4537C81.8332 11.2406 82.2282 11.1328 82.6604 11.1328C83.2068 11.1328 83.6614 11.3048 84.0228 11.6499C84.4724 12.0725 84.6972 12.7034 84.6972 13.5413V16.9609Z" fill="white"/>
<path d="M88.2866 16.9602H86.9863V8.63281H88.2866V16.9602Z" fill="white"/>
<path d="M95.948 14.0589C95.948 14.9368 95.6909 15.656 95.1767 16.2203C94.6377 16.8003 93.9223 17.0898 93.0319 17.0898C92.1712 17.0898 91.4869 16.8125 90.9777 16.2554C90.4685 15.6996 90.2139 14.9985 90.2139 14.1533C90.2139 13.2694 90.4759 12.544 91.0025 11.981C91.5291 11.4179 92.237 11.1357 93.1275 11.1357C93.9882 11.1357 94.6774 11.413 95.2015 11.9688C95.6983 12.5089 95.948 13.2064 95.948 14.0589ZM94.5967 14.1C94.5967 13.5733 94.48 13.1216 94.2477 12.745C93.9757 12.2897 93.5858 12.0621 93.0815 12.0621C92.5574 12.0621 92.16 12.2897 91.888 12.745C91.6545 13.1216 91.539 13.5806 91.539 14.123C91.539 14.6498 91.6558 15.1014 91.888 15.478C92.1699 15.9333 92.5624 16.161 93.0691 16.161C93.5659 16.161 93.9546 15.9297 94.2353 15.4659C94.4775 15.0821 94.5967 14.6268 94.5967 14.1Z" fill="white"/>
<path d="M102.248 16.9602H101.079L100.982 16.3027H100.946C100.546 16.827 99.9762 17.0898 99.236 17.0898C98.6834 17.0898 98.2363 16.9166 97.8997 16.5727C97.5942 16.2603 97.4414 15.8716 97.4414 15.4102C97.4414 14.7127 97.7395 14.1812 98.3393 13.813C98.938 13.4449 99.78 13.2645 100.864 13.273V13.1664C100.864 12.4145 100.459 12.0391 99.6484 12.0391C99.0708 12.0391 98.5617 12.1808 98.122 12.4617L97.8575 11.6286C98.4014 11.3004 99.0733 11.1357 99.8657 11.1357C101.396 11.1357 102.163 11.9228 102.163 13.497V15.5991C102.163 16.1695 102.192 16.6236 102.248 16.9602ZM100.897 14.9985V14.1182C99.4608 14.094 98.743 14.4778 98.743 15.2686C98.743 15.5664 98.8249 15.7892 98.9926 15.9382C99.1603 16.0871 99.3739 16.161 99.6285 16.161C99.9141 16.161 100.181 16.0726 100.425 15.897C100.669 15.7202 100.82 15.4962 100.875 15.2213C100.889 15.1596 100.897 15.0845 100.897 14.9985Z" fill="white"/>
<path d="M109.643 16.9602H108.488L108.428 16.0435H108.392C108.023 16.741 107.394 17.0898 106.511 17.0898C105.806 17.0898 105.218 16.8197 104.753 16.2797C104.287 15.7396 104.055 15.0385 104.055 14.1775C104.055 13.2536 104.307 12.5053 104.814 11.9337C105.304 11.4009 105.905 11.1345 106.621 11.1345C107.407 11.1345 107.957 11.3925 108.27 11.9095H108.295V8.63281H109.598V15.4223C109.598 15.9782 109.612 16.4904 109.643 16.9602ZM108.295 14.5529V13.6011C108.295 13.4365 108.282 13.3033 108.259 13.2016C108.185 12.8964 108.028 12.6397 107.788 12.4326C107.546 12.2256 107.254 12.1214 106.917 12.1214C106.432 12.1214 106.052 12.3091 105.772 12.6857C105.495 13.0623 105.355 13.543 105.355 14.1303C105.355 14.6946 105.488 15.1523 105.755 15.5047C106.037 15.8801 106.417 16.0678 106.893 16.0678C107.32 16.0678 107.661 15.9116 107.921 15.5979C108.172 15.3085 108.295 14.9598 108.295 14.5529Z" fill="white"/>
<path d="M120.775 14.0589C120.775 14.9368 120.518 15.656 120.004 16.2203C119.465 16.8003 118.752 17.0898 117.859 17.0898C117.001 17.0898 116.317 16.8125 115.805 16.2554C115.296 15.6996 115.041 14.9985 115.041 14.1533C115.041 13.2694 115.303 12.544 115.83 11.981C116.356 11.4179 117.064 11.1357 117.957 11.1357C118.815 11.1357 119.507 11.413 120.029 11.9688C120.525 12.5089 120.775 13.2064 120.775 14.0589ZM119.426 14.1C119.426 13.5733 119.31 13.1216 119.077 12.745C118.803 12.2897 118.415 12.0621 117.909 12.0621C117.387 12.0621 116.99 12.2897 116.715 12.745C116.482 13.1216 116.366 13.5806 116.366 14.123C116.366 14.6498 116.483 15.1014 116.715 15.478C116.997 15.9333 117.39 16.161 117.896 16.161C118.393 16.161 118.784 15.9297 119.065 15.4659C119.305 15.0821 119.426 14.6268 119.426 14.1Z" fill="white"/>
<path d="M127.774 16.9609H126.474V13.6915C126.474 12.684 126.081 12.1802 125.293 12.1802C124.906 12.1802 124.595 12.3183 124.354 12.5956C124.113 12.8729 123.992 13.1998 123.992 13.574V16.9597H122.69V12.8838C122.69 12.3825 122.675 11.8388 122.644 11.2503H123.786L123.847 12.1427H123.883C124.036 11.8654 124.262 11.6365 124.557 11.4537C124.911 11.2406 125.305 11.1328 125.738 11.1328C126.284 11.1328 126.738 11.3048 127.1 11.6499C127.55 12.0725 127.774 12.7034 127.774 13.5413V16.9609Z" fill="white"/>
<path d="M136.533 12.2022H135.1V14.9752C135.1 15.68 135.355 16.0323 135.859 16.0323C136.093 16.0323 136.286 16.0129 136.439 15.973L136.473 16.9357C136.215 17.0301 135.878 17.0773 135.462 17.0773C134.947 17.0773 134.548 16.9248 134.258 16.6196C133.968 16.3145 133.823 15.801 133.823 15.0806V12.2022H132.968V11.2517H133.823V10.2055L135.099 9.83008V11.2505H136.532V12.2022H136.533Z" fill="white"/>
<path d="M143.423 16.9602H142.121V13.715C142.121 12.6918 141.728 12.1795 140.942 12.1795C140.338 12.1795 139.926 12.4762 139.7 13.0696C139.662 13.1943 139.639 13.3469 139.639 13.5261V16.959H138.339V8.63281H139.639V12.073H139.664C140.074 11.447 140.661 11.1345 141.423 11.1345C141.962 11.1345 142.408 11.3065 142.761 11.6516C143.202 12.0815 143.423 12.7208 143.423 13.566V16.9602Z" fill="white"/>
<path d="M150.531 13.8362C150.531 14.0639 150.514 14.2552 150.483 14.4114H146.579C146.597 14.9757 146.783 15.4055 147.144 15.7034C147.475 15.9698 147.901 16.103 148.422 16.103C149 16.103 149.526 16.0134 150.001 15.833L150.205 16.7145C149.649 16.9494 148.996 17.0669 148.24 17.0669C147.333 17.0669 146.619 16.8066 146.102 16.2859C145.583 15.7652 145.326 15.0665 145.326 14.1898C145.326 13.3288 145.566 12.612 146.049 12.0404C146.553 11.4301 147.235 11.125 148.096 11.125C148.938 11.125 149.577 11.4301 150.01 12.0404C150.359 12.5248 150.531 13.1242 150.531 13.8362ZM149.289 13.5081C149.299 13.1315 149.213 12.8069 149.037 12.5333C148.811 12.1809 148.467 12.0041 148.001 12.0041C147.577 12.0041 147.23 12.1761 146.966 12.5212C146.749 12.796 146.622 13.1242 146.579 13.5081H149.289Z" fill="white"/>
</svg>
