<svg width="168" height="49" viewBox="0 0 168 49" fill="none" xmlns="http://www.w3.org/2000/svg">
<path d="M161.347 48.4658H6.31646C2.90734 48.4658 0.115234 45.7398 0.115234 42.4113V6.08421C0.115234 2.75574 2.90734 0.0296972 6.31646 0.0296972H161.347C164.756 0.0296972 167.548 2.75574 167.548 6.08421V42.4113C167.548 45.7398 164.756 48.4658 161.347 48.4658Z" fill="black"/>
<path d="M161.347 0.999932C164.218 0.999932 166.555 3.28097 166.555 6.08421V42.4113C166.555 45.2145 164.218 47.4956 161.347 47.4956H6.31646C3.44529 47.4956 1.10898 45.2145 1.10898 42.4113V6.08421C1.10898 3.28097 3.44529 0.999932 6.31646 0.999932H161.347ZM161.347 0.0296972H6.31646C2.90734 0.0296972 0.115234 2.75574 0.115234 6.08421V42.4113C0.115234 45.7398 2.90734 48.4658 6.31646 48.4658H161.347C164.756 48.4658 167.548 45.7398 167.548 42.4113V6.08421C167.548 2.75574 164.756 0.0296972 161.347 0.0296972Z" fill="#A6A6A6"/>
<path d="M58.9244 12.4341C58.9244 13.4452 58.6144 14.255 58.0035 14.8589C57.3013 15.5749 56.3866 15.9351 55.2657 15.9351C54.1944 15.9351 53.2798 15.5688 52.5294 14.8468C51.7775 14.1142 51.4023 13.2151 51.4023 12.139C51.4023 11.0628 51.7775 10.1637 52.5294 9.43713C53.2798 8.70907 54.1944 8.34277 55.2657 8.34277C55.799 8.34277 56.3075 8.45024 56.7928 8.65004C57.2765 8.85135 57.6702 9.12381 57.9555 9.45983L57.3075 10.0986C56.8098 9.52492 56.1323 9.24187 55.2657 9.24187C54.4844 9.24187 53.8069 9.50827 53.2317 10.0456C52.6627 10.5845 52.3775 11.2822 52.3775 12.139C52.3775 12.9957 52.6627 13.6995 53.2317 14.2384C53.8069 14.7696 54.4844 15.0421 55.2657 15.0421C56.0951 15.0421 56.7928 14.7696 57.3431 14.2323C57.7059 13.8766 57.9121 13.3862 57.9663 12.7595H55.2657V11.8847H58.8686C58.912 12.0739 58.9244 12.257 58.9244 12.4341Z" fill="white" stroke="white" stroke-width="0.149034" stroke-miterlimit="10"/>
<path d="M64.6403 9.39739H61.2559V11.6981H64.3069V12.573H61.2559V14.8737H64.6403V15.7652H60.2979V8.50586H64.6403V9.39739Z" fill="white" stroke="white" stroke-width="0.149034" stroke-miterlimit="10"/>
<path d="M68.6726 15.7652H67.7145V9.39739H65.6387V8.50586H70.75V9.39739H68.6726V15.7652Z" fill="white" stroke="white" stroke-width="0.149034" stroke-miterlimit="10"/>
<path d="M74.4492 15.7652V8.50586H75.4058V15.7652H74.4492Z" fill="white" stroke="white" stroke-width="0.149034" stroke-miterlimit="10"/>
<path d="M79.6482 15.7652H78.6979V9.39739H76.6143V8.50586H81.7318V9.39739H79.6482V15.7652Z" fill="white" stroke="white" stroke-width="0.149034" stroke-miterlimit="10"/>
<path d="M91.4076 14.8347C90.6743 15.5688 89.7659 15.9351 88.6822 15.9351C87.5923 15.9351 86.6839 15.5688 85.9506 14.8347C85.2188 14.1021 84.8545 13.203 84.8545 12.139C84.8545 11.0749 85.2188 10.1758 85.9506 9.44318C86.6839 8.70907 87.5923 8.34277 88.6822 8.34277C89.7597 8.34277 90.6681 8.70907 91.4014 9.44924C92.1394 10.1879 92.5037 11.0809 92.5037 12.139C92.5037 13.203 92.1394 14.1021 91.4076 14.8347ZM86.6591 14.2262C87.211 14.7696 87.8822 15.0421 88.6822 15.0421C89.476 15.0421 90.1534 14.7696 90.6991 14.2262C91.2495 13.6829 91.5286 12.9851 91.5286 12.139C91.5286 11.2928 91.2495 10.5951 90.6991 10.0517C90.1534 9.50827 89.476 9.23581 88.6822 9.23581C87.8822 9.23581 87.211 9.50827 86.6591 10.0517C86.1087 10.5951 85.8296 11.2928 85.8296 12.139C85.8296 12.9851 86.1087 13.6829 86.6591 14.2262Z" fill="white" stroke="white" stroke-width="0.149034" stroke-miterlimit="10"/>
<path d="M93.8477 15.7652V8.50586H95.0104L98.6257 14.1517H98.6676L98.6257 12.7561V8.50586H99.5822V15.7652H98.5838L94.798 9.84088H94.7561L94.798 11.2425V15.7652H93.8477Z" fill="white" stroke="white" stroke-width="0.149034" stroke-miterlimit="10"/>
<path d="M84.6191 26.3696C81.706 26.3696 79.3263 28.5341 79.3263 31.5204C79.3263 34.4826 81.706 36.6698 84.6191 36.6698C87.5383 36.6698 89.918 34.4826 89.918 31.5204C89.918 28.5341 87.5383 26.3696 84.6191 26.3696ZM84.6191 34.6415C83.0207 34.6415 81.6456 33.3535 81.6456 31.5204C81.6456 29.6632 83.0207 28.3978 84.6191 28.3978C86.2174 28.3978 87.5988 29.6632 87.5988 31.5204C87.5988 33.3535 86.2174 34.6415 84.6191 34.6415ZM73.0708 26.3696C70.1516 26.3696 67.7781 28.5341 67.7781 31.5204C67.7781 34.4826 70.1516 36.6698 73.0708 36.6698C75.9885 36.6698 78.3636 34.4826 78.3636 31.5204C78.3636 28.5341 75.9885 26.3696 73.0708 26.3696ZM73.0708 34.6415C71.4709 34.6415 70.0912 33.3535 70.0912 31.5204C70.0912 29.6632 71.4709 28.3978 73.0708 28.3978C74.6692 28.3978 76.0443 29.6632 76.0443 31.5204C76.0443 33.3535 74.6692 34.6415 73.0708 34.6415ZM59.3289 27.9483V30.137H64.6821C64.5256 31.36 64.107 32.2591 63.4652 32.8857C62.6838 33.6426 61.4668 34.4826 59.3289 34.4826C56.0345 34.4826 53.4548 31.8867 53.4548 28.6703C53.4548 25.4538 56.0345 22.858 59.3289 22.858C61.1102 22.858 62.4063 23.5376 63.3628 24.4185L64.9426 22.8761C63.6047 21.6289 61.8249 20.6708 59.3289 20.6708C54.8113 20.6708 51.0146 24.2596 51.0146 28.6703C51.0146 33.081 54.8113 36.6698 59.3289 36.6698C61.7707 36.6698 63.6047 35.8888 65.0465 34.4236C66.5239 32.9811 66.9843 30.9528 66.9843 29.3151C66.9843 28.8065 66.9409 28.3388 66.8634 27.9483H59.3289ZM115.521 29.6451C115.086 28.4932 113.742 26.3696 111.004 26.3696C108.291 26.3696 106.032 28.4569 106.032 31.5204C106.032 34.4054 108.267 36.6698 111.264 36.6698C113.687 36.6698 115.086 35.2273 115.661 34.3873L113.862 33.2172C113.263 34.0739 112.446 34.6415 111.264 34.6415C110.091 34.6415 109.249 34.1163 108.709 33.081L115.765 30.2308L115.521 29.6451ZM108.328 31.36C108.267 29.3741 109.908 28.357 111.083 28.357C112.004 28.357 112.785 28.8065 113.045 29.4498L108.328 31.36ZM102.593 36.3565H104.913V21.2202H102.593V36.3565ZM98.7951 27.5169H98.7175C98.1966 26.9145 97.2029 26.3696 95.9441 26.3696C93.3023 26.3696 90.887 28.634 90.887 31.5371C90.887 34.4236 93.3023 36.6698 95.9441 36.6698C97.2029 36.6698 98.1966 36.1204 98.7175 35.4998H98.7951V36.2384C98.7951 38.2077 97.7176 39.2657 95.9797 39.2657C94.5627 39.2657 93.6837 38.2667 93.3209 37.4266L91.304 38.2485C91.8854 39.6138 93.4248 41.2939 95.9797 41.2939C98.6989 41.2939 100.993 39.7319 100.993 35.9312V26.6829H98.7951V27.5169ZM96.1425 34.6415C94.5441 34.6415 93.2062 33.3353 93.2062 31.5371C93.2062 29.7223 94.5441 28.3978 96.1425 28.3978C97.7176 28.3978 98.9594 29.7223 98.9594 31.5371C98.9594 33.3353 97.7176 34.6415 96.1425 34.6415ZM126.38 21.2202H120.833V36.3565H123.146V30.6214H126.38C128.949 30.6214 131.468 28.8065 131.468 25.92C131.468 23.035 128.942 21.2202 126.38 21.2202ZM126.44 28.5159H123.146V23.3257H126.44C128.167 23.3257 129.153 24.7258 129.153 25.92C129.153 27.0916 128.167 28.5159 126.44 28.5159ZM140.739 26.3408C139.067 26.3408 137.329 27.0613 136.615 28.6582L138.667 29.4982C139.109 28.6582 139.922 28.3857 140.78 28.3857C141.98 28.3857 143.197 29.0896 143.216 30.3322V30.4912C142.797 30.2551 141.901 29.9054 140.799 29.9054C138.588 29.9054 136.336 31.0936 136.336 33.3111C136.336 35.3393 138.146 36.6456 140.182 36.6456C141.739 36.6456 142.597 35.9599 143.137 35.1622H143.216V36.3323H145.45V30.526C145.45 27.8423 143.397 26.3408 140.739 26.3408ZM140.46 34.6355C139.703 34.6355 138.649 34.2692 138.649 33.3535C138.649 32.1819 139.963 31.7324 141.101 31.7324C142.12 31.7324 142.597 31.9518 143.216 32.2409C143.035 33.6426 141.799 34.6355 140.46 34.6355ZM153.589 26.6723L150.93 33.2339H150.851L148.103 26.6723H145.608L149.738 35.8419L147.382 40.9443H149.799L156.163 26.6723H153.589ZM132.739 36.3565H135.058V21.2202H132.739V36.3565Z" fill="white"/>
<path d="M13.0576 9.15828C12.6933 9.53063 12.4824 10.1103 12.4824 10.8611V37.6402C12.4824 38.391 12.6933 38.9707 13.0576 39.3431L13.1475 39.4248L28.5172 24.4247V24.0706L13.1475 9.07049L13.0576 9.15828Z" fill="url(#paint0_linear_804_39080)"/>
<path d="M33.6351 29.4277L28.5176 24.4252V24.071L33.6413 19.0685L33.7561 19.1335L39.824 22.5044C41.5556 23.461 41.5556 25.0352 39.824 25.9979L33.7561 29.3626L33.6351 29.4277Z" fill="url(#paint1_linear_804_39080)"/>
<path d="M33.7567 29.3625L28.5182 24.2479L13.0586 39.3433C13.6338 39.9336 14.5717 40.0048 15.6383 39.4145L33.7567 29.3625Z" fill="url(#paint2_linear_804_39080)"/>
<path d="M33.7567 19.1335L15.6383 9.08149C14.5717 8.49723 13.6338 8.56837 13.0586 9.15868L28.5182 24.248L33.7567 19.1335Z" fill="url(#paint3_linear_804_39080)"/>
<defs>
<linearGradient id="paint0_linear_804_39080" x1="27.1526" y1="37.9191" x2="6.83655" y2="17.1108" gradientUnits="userSpaceOnUse">
<stop stop-color="#00A0FF"/>
<stop offset="0.0066" stop-color="#00A1FF"/>
<stop offset="0.2601" stop-color="#00BEFF"/>
<stop offset="0.5122" stop-color="#00D2FF"/>
<stop offset="0.7604" stop-color="#00DFFF"/>
<stop offset="1" stop-color="#00E3FF"/>
</linearGradient>
<linearGradient id="paint1_linear_804_39080" x1="42.0789" y1="24.2464" x2="12.0688" y2="24.2464" gradientUnits="userSpaceOnUse">
<stop stop-color="#FFE000"/>
<stop offset="0.4087" stop-color="#FFBD00"/>
<stop offset="0.7754" stop-color="#FFA500"/>
<stop offset="1" stop-color="#FF9C00"/>
</linearGradient>
<linearGradient id="paint2_linear_804_39080" x1="30.9082" y1="21.4676" x2="3.358" y2="-6.75022" gradientUnits="userSpaceOnUse">
<stop stop-color="#FF3A44"/>
<stop offset="1" stop-color="#C31162"/>
</linearGradient>
<linearGradient id="paint3_linear_804_39080" x1="9.16708" y1="48.2528" x2="21.4695" y2="35.6524" gradientUnits="userSpaceOnUse">
<stop stop-color="#32A071"/>
<stop offset="0.0685" stop-color="#2DA771"/>
<stop offset="0.4762" stop-color="#15CF74"/>
<stop offset="0.8009" stop-color="#06E775"/>
<stop offset="1" stop-color="#00F076"/>
</linearGradient>
</defs>
</svg>
